<?xml version="1.0" encoding="utf-8"?>
<!-- Generator: Adobe Illustrator 26.0.0, SVG Export Plug-In . SVG Version: 6.00 Build 0)  -->
<svg version="1.1" id="Layer_7" xmlns="http://www.w3.org/2000/svg" xmlns:xlink="http://www.w3.org/1999/xlink" x="0px" y="0px"
	 viewBox="0 0 841.89 595.28" style="enable-background:new 0 0 841.89 595.28;" xml:space="preserve">
<style type="text/css">
	.st0{fill:#1F3373;}
	.st1{fill-rule:evenodd;clip-rule:evenodd;fill:#24346D;}
	.st2{fill-rule:evenodd;clip-rule:evenodd;fill:#00A5B2;}
</style>
<path class="st0" d="M350.77,557.58v-6.33h2.37c1.22,0,1.91,0.85,1.91,1.85s-0.7,1.85-1.91,1.85h-1.83v2.63H350.77z M354.49,553.1
	c0-0.8-0.55-1.36-1.4-1.36h-1.78v2.71h1.78C353.94,554.46,354.49,553.89,354.49,553.1z"/>
<path class="st0" d="M356.87,555.28c0-1.34,0.85-2.4,2.19-2.4c1.36,0,2.21,1.06,2.21,2.4c0,1.34-0.85,2.41-2.21,2.41
	C357.73,557.69,356.87,556.62,356.87,555.28z M360.74,555.28c0-1.02-0.6-1.96-1.68-1.96c-1.06,0-1.67,0.94-1.67,1.96
	c0,1.03,0.61,1.97,1.67,1.97C360.15,557.25,360.74,556.31,360.74,555.28z"/>
<path class="st0" d="M367.43,557.58l-1.28-3.92l-1.29,3.92h-0.47l-1.49-4.58h0.53l1.22,3.89l1.29-3.89h0.43l1.29,3.89l1.22-3.89
	h0.53l-1.49,4.58H367.43z"/>
<path class="st0" d="M371.02,555.28c0-1.33,0.93-2.4,2.2-2.4c1.4,0,2.16,1.1,2.16,2.43v0.13h-3.84c0.05,1,0.71,1.82,1.79,1.82
	c0.58,0,1.11-0.22,1.5-0.64l0.26,0.32c-0.46,0.47-1.03,0.74-1.79,0.74C371.97,557.69,371.02,556.7,371.02,555.28z M373.21,553.31
	c-1.08,0-1.62,0.95-1.66,1.75h3.33C374.87,554.28,374.36,553.31,373.21,553.31z"/>
<path class="st0" d="M377.61,557.58v-4.58h0.49v0.79c0.39-0.51,0.91-0.88,1.55-0.88v0.54c-0.09-0.02-0.15-0.02-0.25-0.02
	c-0.47,0-1.09,0.42-1.3,0.82v3.34H377.61z"/>
<path class="st0" d="M381.31,555.28c0-1.33,0.93-2.4,2.2-2.4c1.4,0,2.16,1.1,2.16,2.43v0.13h-3.84c0.05,1,0.71,1.82,1.79,1.82
	c0.58,0,1.11-0.22,1.5-0.64l0.26,0.32c-0.46,0.47-1.03,0.74-1.79,0.74C382.26,557.69,381.31,556.7,381.31,555.28z M383.51,553.31
	c-1.08,0-1.62,0.95-1.66,1.75h3.33C385.17,554.28,384.66,553.31,383.51,553.31z"/>
<path class="st0" d="M391.28,557.58v-0.73c-0.32,0.47-0.91,0.84-1.59,0.84c-1.22,0-2.04-0.93-2.04-2.4c0-1.45,0.83-2.41,2.04-2.41
	c0.65,0,1.23,0.33,1.59,0.85v-2.49h0.5v6.33H391.28z M391.28,556.43v-2.27c-0.27-0.45-0.86-0.84-1.51-0.84
	c-1.02,0-1.6,0.85-1.6,1.96c0,1.11,0.59,1.96,1.6,1.96C390.42,557.25,391.02,556.87,391.28,556.43z"/>
<path class="st0" d="M397.69,557.58v-6.33h0.49v2.49c0.37-0.52,0.95-0.85,1.59-0.85c1.22,0,2.05,0.96,2.05,2.41
	c0,1.47-0.84,2.4-2.05,2.4c-0.68,0-1.27-0.37-1.59-0.84v0.73H397.69z M399.69,557.25c1.03,0,1.6-0.85,1.6-1.96
	c0-1.11-0.58-1.96-1.6-1.96c-0.64,0-1.24,0.4-1.51,0.84v2.27C398.45,556.87,399.05,557.25,399.69,557.25z"/>
<path class="st0" d="M403.84,558.92c0.1,0.05,0.28,0.08,0.4,0.08c0.3,0,0.51-0.12,0.7-0.56l0.36-0.82l-1.95-4.62h0.55l1.67,4.01
	l1.65-4.01h0.56l-2.37,5.59c-0.25,0.58-0.64,0.85-1.17,0.85c-0.16,0-0.37-0.03-0.49-0.07L403.84,558.92z"/>
<path class="st0" d="M430.84,557.15l0.48-0.61c0.41,0.47,1.09,0.91,1.98,0.91c1.13,0,1.49-0.61,1.49-1.1c0-1.63-3.75-0.72-3.75-2.98
	c0-1.04,0.93-1.77,2.18-1.77c0.96,0,1.71,0.33,2.24,0.89l-0.47,0.58c-0.47-0.53-1.14-0.76-1.83-0.76c-0.75,0-1.3,0.41-1.3,1.01
	c0,1.42,3.75,0.61,3.75,2.97c0,0.91-0.63,1.86-2.34,1.86C432.18,558.15,431.37,557.74,430.84,557.15z"/>
<path class="st0" d="M437.74,558.04v-6.33h0.79v6.33H437.74z"/>
<path class="st0" d="M445.44,558.04l-3.69-5.05v5.05h-0.79v-6.33h0.81l3.65,4.95v-4.95h0.79v6.33H445.44z"/>
<path class="st0" d="M448.63,558.04v-6.33h2.16c1.97,0,3.25,1.38,3.25,3.17c0,1.8-1.27,3.16-3.25,3.16H448.63z M453.22,554.88
	c0-1.37-0.86-2.47-2.43-2.47h-1.38v4.93h1.38C452.33,557.34,453.22,556.24,453.22,554.88z"/>
<path class="st0" d="M456.23,558.04v-6.33h0.79v6.33H456.23z"/>
<path class="st0" d="M459.19,554.88c0-1.87,1.27-3.28,3.14-3.28c1.87,0,3.15,1.4,3.15,3.28c0,1.87-1.28,3.27-3.15,3.27
	C460.46,558.15,459.19,556.75,459.19,554.88z M464.67,554.88c0-1.48-0.92-2.57-2.34-2.57c-1.42,0-2.33,1.09-2.33,2.57
	c0,1.47,0.9,2.57,2.33,2.57C463.75,557.45,464.67,556.35,464.67,554.88z"/>
<path class="st0" d="M472.14,558.04l-3.69-5.05v5.05h-0.79v-6.33h0.81l3.65,4.95v-4.95h0.79v6.33H472.14z"/>
<path class="st0" d="M478.64,558.04v-6.33h0.79v5.63h2.94v0.7H478.64z"/>
<path class="st0" d="M485.94,558.04v-5.63h-2v-0.7h4.8v0.7h-2.01v5.63H485.94z"/>
<path class="st0" d="M490.74,558.04v-6.33h2.16c1.97,0,3.25,1.38,3.25,3.17c0,1.8-1.27,3.16-3.25,3.16H490.74z M495.33,554.88
	c0-1.37-0.86-2.47-2.43-2.47h-1.38v4.93h1.38C494.44,557.34,495.33,556.24,495.33,554.88z"/>
<path class="st0" d="M498.16,557.61c0-0.28,0.24-0.52,0.52-0.52c0.29,0,0.52,0.24,0.52,0.52c0,0.29-0.24,0.52-0.52,0.52
	C498.4,558.13,498.16,557.9,498.16,557.61z"/>
<g>
	<polygon class="st1" points="422.08,559.56 419.74,560.9 415.82,558.64 411.89,556.37 411.89,553.67 	"/>
	<polygon class="st2" points="426.43,557.04 411.89,548.65 411.89,547.31 413.05,546.64 427.59,555.04 427.59,556.37 	"/>
	<polygon class="st2" points="424.26,551.99 414.02,546.08 415.82,545.04 416.43,544.69 424.26,549.21 	"/>
	<polygon class="st2" points="417.4,544.13 419.74,542.78 423.67,545.04 427.59,547.31 427.59,550.01 	"/>
	<polygon class="st1" points="415.23,551.69 425.46,557.6 423.67,558.64 423.05,558.99 415.23,554.47 	"/>
</g>
</svg>
