<?xml version="1.0" encoding="utf-8"?>
<!-- Generator: Adobe Illustrator 24.0.0, SVG Export Plug-In . SVG Version: 6.00 Build 0)  -->
<svg version="1.1" id="Layer_1" xmlns="http://www.w3.org/2000/svg" xmlns:xlink="http://www.w3.org/1999/xlink" x="0px" y="0px"
	 viewBox="0 0 762 528" style="enable-background:new 0 0 762 528;" xml:space="preserve">
<style type="text/css">
	.st0{fill:#EBAA16;}
	.st1{fill:#01A5B2;}
	.st2{fill:#FFFFFF;}
</style>
<g>
	<path class="st0" d="M377.3,111.4c-0.1-3.7-0.4-7.3-1-10.9c-1.3-8.3-4.7-15.4-7.7-23.1c-3-7.6-5.2-15.6-7.7-23.4
		c-1.2-3.9-3-7.6-4.5-11.4c-0.1-0.3-0.2-0.5-0.4-0.8c2.8-0.7,4.5-2.3,4.5-5.3c0-2.3-1.5-3.9-4.2-4.8c0.3-0.1,0.5-0.2,0.7-0.2
		c2.3-0.8,3.8-3.1,3.5-5.4c-0.4-2.5-2.3-4.4-4.8-4.4c-3-0.1-6.1,0-9.1,0c-0.3,0-0.8-0.2-1-0.5c-3.9-5.5-9.1-9-15.5-10.8
		c-11.2-3.1-22.5-3.3-33.6,0.6c-5.8,2-10.7,5.4-14.7,10.2c-0.2,0.3-0.7,0.5-1.1,0.5c-3.2,0-6.4,0-9.6,0c-2.3,0-4.2,1.7-4.7,3.8
		c-0.5,2.3,0.5,4.5,2.5,5.6c0.5,0.2,1,0.4,1.6,0.6c-2.6,0.8-4.2,2.4-4.2,5.2c0,2.7,1.7,4.3,4.4,5c-0.8,1.7-1.6,3.3-2.3,4.9
		c-3.6,7.9-6.4,16-7.8,24.6c-0.9,5.5-1.3,10.8-2.9,16.1c-0.5,1.6-1.1,3.2-1.6,4.9c-2.9,9.5-1.2,18.7-1.7,28.4
		c-0.5,9.8-3.5,15.9-4.3,25.7c0.8,0.3,1.8,3.7,2.6,3.7c1.2,0,2.4,0,3.5,0c0.1,0,0.2,0,0.2-0.1c0,0,0.1-0.1,0.1-0.2
		c0.2,0,1.5-11.8,1.7-12.9c0.6-4.4,1.1-8.9,1.1-13.3c0-3.4,0.2-6.7,0-10c-0.2-4.1-0.7-8.3-0.1-12.4c0.8-5,3-9.9,4.9-14.6
		c1.6-3.8,4.5-5.5,7.7-7.8c0.2-0.2,0.5-0.3,0.8-0.5c0,0,0.1,0,0.1,0c0.2,1.8,0.3,3.6,0.7,5.4c0.5,2.8,1.7,5.3,3.5,7.5
		c0.6,0.7,1.3,1.4,2.1,2c0.7,0.5,1.1,1,1.4,1.9c0.7,2.2,1.5,4.4,2.3,6.6c0.2,0.5,7.1,11.8,7.1,11.8c0.2,0.2,0.4,0.3,0.5,0.5
		c3.2,3.9,6.8,7.4,11.3,10c0.2,0.1,0.4,0.3,0.5,0.4c3.2,3.9,7.4,5.3,12.3,5.1c4.2-0.2,7.7-1.8,10.4-5.1c0.1-0.2,0.3-0.3,0.5-0.4
		c4.4-2.5,7.9-5.9,11.1-9.8c0.2-0.2,7.6-12,7.7-12.4c0.8-2.4,1.6-4.9,2.5-7.3c0.1-0.2,0.2-0.5,0.4-0.7c1-0.8,2-1.5,3-2.3
		c1.7,5.3,6.4,17.3,7.2,30.1c0.8,11.3-2.2,23.4-1.8,28.4h6.7c-0.1-1.4,1.7-28.6,1.5-29.9c-0.9-8.7-3.6-18.8-6.1-27.2
		c-1.2-3.9-1.9-7.8-2.9-11.8c0-0.1,0-0.3-0.1-0.4c0.1,0,0.2,0,0.2,0c5.5,3.8,10.6,6.9,12.7,13.6c3,9.4,3.4,19.5,2.7,29.3
		c-0.7,9.8-2.4,19.6-3.7,29.4c2.1,0,4.2,0,6.3,0c0.3,0,0,0.1,0.3,0c0.3-0.2,0.3-1,0.3-1.3c0.1-0.6,0.1-1.2,0.2-1.7
		c0.9-4.5,1.2-9.1,1.8-13.6c0.6-4.3,1.2-8.6,1.6-13C377.3,119.4,377.4,115.4,377.3,111.4z M296.2,18.1c4.7-2.2,9.6-3.1,14.7-3.3
		c6.3-0.2,12.6,0.2,18.6,2.3c2.5,0.9,4.7,2,6.8,3.7c0.2,0.2,0.4,0.4,0.7,0.7h-46.3C292.5,20.1,294.3,19,296.2,18.1z M346.6,83.1
		c-0.5,2.6-2.1,4.6-4.5,5.9c-0.9,0.5-1.6,1.2-1.8,2.3c-0.7,4.4-2.6,8.3-4.8,12c-3,5.1-6.7,9.7-11.5,13.3c-0.4,0.3-0.9,0.7-1.4,1
		c-1.4,0.8-2.5,1.7-3.6,2.8c-2.8,2.7-6.2,3-9.6,1.2c-1-0.5-1.8-1.4-2.8-2.2c-0.4-0.3-0.7-0.7-1-0.9c-4.4-2.4-7.8-5.8-10.8-9.7
		c-3.3-4.2-6-8.9-7.7-14c-0.4-1.1-0.6-2.2-0.8-3.4c-0.2-1-0.7-1.9-1.6-2.4c-3.3-1.8-4.7-4.9-5-8.4c-0.2-1.9-0.1-3.8-0.2-5.7
		c0-0.6,0.2-0.9,0.7-1.2c2.9-1.7,5.5-3.8,7.3-6.8c1.5-2.5,2.1-5.2,2.2-8.1c0.1-1.4,0.3-2.8,0.6-4.1c0.2-0.7,0.7-1.4,1.1-2
		c0.5-0.7,1.3-1,2.2-1c2.3,0,4.5,0.4,6.6,1.5c3.8,1.9,7.9,2.1,12.1,1.8c3.5-0.3,6.8-1.5,10.1-2.5c0.2-0.1,0.5-0.1,0.7-0.2
		c3.2-1.2,5.8-0.3,8,2c1.4,1.4,2.6,3,3.7,4.6c3.1,4.6,6.1,9.3,10.1,13.1c1.5,1.5,2.3,3,1.9,5c0,0.2,0,0.5,0,0.8c0,0,0.1,0,0.1,0
		C347,79.7,347,81.4,346.6,83.1z M360.8,76.7c-1.8-1.4-3.7-2.7-5.5-4.1c-5.1-4-9.1-9-12.5-14.4c-2.1-3.2-4.2-6.4-7-8.9
		c-4.3-3.8-9.1-4.8-14.5-3.3c-2.5,0.7-4.9,1.5-7.3,2.1c-2.6,0.7-5.2,0.6-7.8,0.2c-1-0.2-1.9-0.6-2.8-1c-3.5-1.7-7.2-2.3-11-2
		c-2.9,0.2-5,1.8-6.6,4.1c-1.9,2.7-2.7,5.7-2.6,8.9c0.1,3.8-1.6,6.6-4.6,8.6c-1.5,1-3.1,1.8-4.7,2.7c-2.3,1.4-4.5,2.8-7,4.3
		c0.6-2.8,1.1-5.5,1.8-8.2c2.2-8.2,5.4-15.9,9.3-23.4c0.2-0.5,0.5-0.6,1.1-0.6c22.9,0,45.9,0,68.8,0c0.5,0,0.8,0.2,1,0.7
		c3,5.7,5.2,11.8,7,18c1.5,5.2,3.2,10.2,4.9,15.4C360.8,76.1,360.9,76.3,360.8,76.7z"/>
	<g>
		<g>
			<path class="st0" d="M217.5,278.3c-2.6,8.1-3.5,17.1,0.3,24.6c4.1,7.8,13.1,12.7,22.2,13c-6.6,0.4-13.2,0.8-19.7-0.2
				c-6.5-0.9-12.9-3.4-17.4-7.9c-5.8-5.8-8-14.3-7-22.4c1.3-10.1,7-19.4,12.8-27.7c9.3-13.4,20.5-25.6,32.9-36.4
				c0.6-0.5,1.3-1,1.8-1.5v19.8C231.9,250.3,222.4,262.9,217.5,278.3z"/>
			<path class="st0" d="M413.1,179.8c0,7.3-2.4,14.6-5.4,21.2c-1,2.3-2.1,4.6-3.3,6.8c2.1-8,1.4-17.3-3.7-24
				c-4.8-6.3-12.7-9.1-20.5-10.1c-0.3,0-0.6,0-0.9-0.1V156c4.7-0.1,9.4,0.2,14,1.1c4.4,0.9,8.8,2.6,12.3,5.5
				C410.3,166.6,413.1,173.7,413.1,179.8z"/>
		</g>
		<path class="st0" d="M189.1,283.5c0,0-13.5,36,23.2,44.5c37.9,8.8,78.3-8.6,110.6-27.2c35.3-20.3,68.9-47.8,91.4-81.5
			c12.3-18.5,23-44.6,3.7-61.8c-6-5.4-14.2-10.1-22.8-8.1c16.5-3.8,38.3-2.7,50.2,9.8c24,25.3-7.1,63.6-25.2,83.8
			c-29.3,32.6-64,60.2-103.6,80.1c-13.2,6.7-27.3,12.7-41.4,17.7c-24.3,8.6-61,20.2-84.9,5.2C168.3,332.1,178.5,301.4,189.1,283.5z"
			/>
	</g>
	<rect x="306.2" y="149.4" class="st0" width="11" height="61.2"/>
	<path class="st0" d="M343.1,136.7c-2.7-0.7-5.5-1.5-8.2-2c-1.1-0.2-2.4-0.1-3.4,0.3c-13.2,6-26.3,5.9-39.4,0
		c-0.6-0.3-1.4-0.7-2-0.6c-3.5,0.7-6.9,1.6-11.1,2.7c0.4,0.5,0.7,1.1,1,1.6c1.1,1.8,2,3.5,3.3,4.6c1.9,1.5,3.9,2.9,6.1,4.1
		c1,0.5,1.9,1,3,1.4c10.3,4,21,4.4,31.7,2.2c3.6-0.7,7.1-1.8,10.3-3.4c2.1-1.1,4.1-2.3,5.9-4c1.6-1.4,2.8-3,3.4-5
		c0.1-0.5,0.3-1,0.3-1.6C343.5,137,343.3,136.8,343.1,136.7z"/>
	<g>
		<path class="st1" d="M159.2,341.1c-13.2,0-19.7-6.4-19.7-19.2c0-13.2,6.6-19.7,19.7-19.7v-12.8c-9.6,0-17.7,3.2-24.3,9.6
			c-6.6,6.4-9.9,14.5-9.9,24.2c0,9.3,2.4,15.3,7.1,17.9H112v15.2h47.2V341.1z"/>
		<path class="st1" d="M301.5,399c-8.1,0-12.2-4.2-12.2-12.6V344c-3.8,1.5-7.5,2.9-11.3,4.3c-8.7,3.1-18.2,6.3-27.9,8.7v29.4
			c0,8.4-4.1,12.6-12.2,12.6H66c-8.1,0-12.1-4.2-12.1-12.6v-41H14.5v41c0,14,5.1,25.9,15.4,35.9c10.2,10,22.3,15,36.1,15h171.8
			c12.7,0,23-3.9,30.9-11.8c9.2,7.9,20.1,11.8,32.8,11.8h7.7V399H301.5z"/>
		<path class="st1" d="M289.2,154.8V309c-14.1,6.1-27.1,10.1-39.3,12V146l22.6-7.3h0.1C275.8,147.5,281.9,152,289.2,154.8z"/>
		<path class="st1" d="M334.2,386.4c0,8.4-4.1,12.6-12.2,12.6h-6.3v38.3h6.3c13.8,0,25.9-5,36.1-15c10.2-10,15.3-21.9,15.3-35.9
			v-89.5c-12.6,9.6-25.7,18.2-39.3,25.9V386.4z"/>
		<path class="st1" d="M373.5,146v108.3c-13.1,12.1-26.7,22.2-39.3,30.3V154.8c7.2-2.8,13.3-7.2,16.6-16.1c1.8,0.4,3.6,0.8,5.5,1.3
			c2.9,0.7,5.8,1.5,8.7,2.2C368.2,143,371.1,144.3,373.5,146z"/>
		<rect x="309.2" y="399" class="st1" width="6.5" height="38.3"/>
		<path class="st1" d="M566.8,399V207.7h-37.9c-31.3,0-58,11.3-80,33.9c-22,22.5-33.1,49.6-33.1,81.1c0,31.1,10.9,57.9,32.6,80.5
			c21.8,22.7,48.2,34,79.1,34c0,23.3-7.8,42.3-23.4,57l29.3,25.8c22.2-20.9,33.4-46.7,33.4-77.5v-5.3H580V399H566.8z M527.1,399
			c-20.6,0-38-7.6-52.1-23c-13.8-14.8-20.7-32.6-20.7-53.3c0-18.7,7.5-36.2,22.5-52.4c15-16.2,31.8-24.3,50.4-24.3V399z"/>
		<path class="st1" d="M731.7,223.2c-10.5-9.8-28.7-14.7-54.6-14.7c-26.5,0-44.7,4.9-54.7,15c-10.1,10-15.1,22-15.1,36.3V368h39.5
			V263.9c0-9.8,10.1-14.7,30.5-14.7c20.5,0,30.8,4.9,30.8,14.7v122.5c0,8.4-4.2,12.6-12.7,12.6h-109v38.3h110.9
			c11.3,0,22.5-4,33.6-12c11.1-8,16.7-21,16.7-38.8v-128C747.5,244.6,742.2,232.9,731.7,223.2z"/>
		<rect x="580" y="399" class="st1" width="6.3" height="38.3"/>
		<path class="st1" d="M272.7,138.7h-0.1C272.6,138.7,272.6,138.7,272.7,138.7C272.7,138.7,272.7,138.7,272.7,138.7z"/>
	</g>
	<g>
		<circle class="st2" cx="312" cy="167.3" r="2.4"/>
		<circle class="st2" cx="312" cy="181.5" r="2.4"/>
		<circle class="st2" cx="312" cy="195.7" r="2.4"/>
	</g>
</g>
</svg>
